# AST/ASF file generated using VICON BodyLanguage
# -----------------------------------------------
:version 1.10
:name VICON
:units
  mass 1.0
  length 0.45
  angle deg
:documentation
   .ast/.asf automatically generated from VICON data using
   VICON BodyBuilder and BodyLanguage model FoxedUp or BRILLIANT.MOD
:root
   order TX TY TZ RX RY RZ
   axis XYZ
   position 0 0 0  
   orientation 0 0 0 
:bonedata
  begin
     id 1 
     name lhipjoint
     direction 0.710087 -0.641647 0.289942 
     length 2.79038 
     axis 0 0 0  XYZ
  end
  begin
     id 2 
     name lfemur
     direction 0.34202 -0.939693 0  
     length 7.2706  
     axis 0 0 20  XYZ
    dof rx ry rz
    limits (-160.0 20.0)
           (-70.0 70.0)
           (-60.0 70.0)
  end
  begin
     id 3 
     name ltibia
     direction 0.34202 -0.939693 0   
     length 7.86328   
     axis 0 0 20   XYZ
    dof rx
    limits (-10.0 170.0)
  end
  begin
     id 4 
     name lfoot
     direction 0.0541246 -0.148706 0.987399   
     length 2.37542   
     axis -90 7.62852e-016 20   XYZ
    dof rx rz
    limits (-45.0 90.0)
           (-70.0 20.0)
  end
  begin
     id 5 
     name ltoes
     direction 1.53554e-011 -4.21866e-011 1   
     length 1.19593   
     axis -90 7.62852e-016 20   XYZ
    dof rx
    limits (-90.0 20.0)
  end
  begin
     id 6 
     name rhipjoint
     direction -0.675762 -0.671724 0.303533   
     length 2.66544  
     axis 0 0 0  XYZ 
  end
  begin
     id 7 
     name rfemur
     direction -0.34202 -0.939693 0   
     length 8.11844   
     axis 0 0 -20   XYZ
    dof rx ry rz
    limits (-160.0 20.0)
           (-70.0 70.0)
           (-70.0 60.0)
  end
  begin
     id 8 
     name rtibia
     direction -0.34202 -0.939693 0   
     length 7.97082   
     axis 0 0 -20   XYZ
    dof rx
    limits (-10.0 170.0)
 end
 begin
     id 9 
     name rfoot
     direction -0.0726228 -0.199474 0.977208   
     length 2.19677  
     axis -90 -7.62852e-016 -20   XYZ
    dof rx rz
    limits (-45.0 90.0)
           (-20.0 70.0)
  end
  begin
     id 10 
     name rtoes
     direction -1.53508e-011 -4.21913e-011 1   
     length 1.10438   
     axis -90 -7.62852e-016 -20   XYZ
    dof rx
    limits (-90.0 20.0)
  end
  begin
     id 11 
     name lowerback
     direction -0.00404436 0.999673 -0.0252643   
     length 2.03972   
     axis 0 0 0   XYZ
    dof rx ry rz
    limits (-20.0 45.0)
           (-30.0 30.0)
           (-30.0 30.0)
  end
  begin
     id 12 
     name upperback
     direction 0.00744643 0.999969 0.00242763   
     length 2.04273   
     axis 0 0 0   XYZ
    dof rx ry rz
    limits (-20.0 45.0)
           (-30.0 30.0)
           (-30.0 30.0)
  end
  begin
     id 13 
     name thorax
     direction 0.00846113 0.999862 0.0143204   
     length 2.03752   
     axis 0 0 0   XYZ
    dof rx ry rz
    limits (-20.0 45.0)
           (-30.0 30.0)
           (-30.0 30.0)
  end
  begin
     id 14 
     name lowerneck
     direction 0.0328213 0.990857 0.130862   
     length 1.37497   
     axis 0 0 0   XYZ
    dof rx ry rz
    limits (-20.0 45.0)
           (-30.0 30.0)
           (-30.0 30.0)
  end
  begin
     id 15 
     name upperneck
     direction -0.0302832 0.999496 0.00956452   
     length 1.35926   
     axis 0 0 0   XYZ
    dof rx ry rz
    limits (-20.0 45.0)
           (-30.0 30.0)
           (-30.0 30.0)
  end
  begin
     id 16
     name head
     direction -0.0130455 0.999856 -0.0108809  
     length 1.44454  
     axis 0 0 0   XYZ
    dof rx ry rz
    limits (-20.0 45.0)
           (-30.0 30.0)
           (-30.0 30.0)
  end
  begin
     id 17 
     name lclavicle
     direction 0.952957 0.278766 0.119006  
     length 3.10112  
     axis 0 0 0   XYZ
    dof ry rz
    limits (-20.0 10.0)
           (0.0 20.0)
  end
  begin
     id 18 
     name lhumerus
     direction 1 -4.48972e-011 -1.63238e-028   
     length 5.82845   
     axis -180 -30 -90   XYZ
    dof rx ry rz
    limits (-60.0 90.0)
           (-90.0 90.0)
           (-90.0 90.0)
  end
  begin
     id 19
     name lradius
     direction 1 -4.48959e-011 1.45401e-026   
     length 3.49691   
     axis -180 -30 -90   XYZ
    dof rx
    limits (-10.0 170.0)
  end
  begin
     id 20
     name lwrist
     direction 1 -4.48945e-011 2.98015e-026   
     length 1.74845   
     axis -1.7599e-014 90 90   XYZ
    dof ry
    limits (-180.0 0.0)
 end
  begin
     id 21 
     name lhand
     direction 1 -4.4902e-011 5.9603e-026   
     length 0.674998   
     axis -3.80318e-014 90 90   XYZ
    dof rx rz
    limits (-90.0 90.0)
           (-45.0 45.0)
  end
  begin
     id 22 
     name lfingers
     direction 1 -4.48979e-011 1.19206e-025   
     length 0.544201   
     axis -7.60636e-014 90 90   XYZ
    dof rx
    limits (0.0 90.0)
  end
  begin
     id 23
     name lthumb
     direction 0.707107 -6.34941e-011 0.707107   
     length 0.781367   
     axis -90 45 2.85299e-015   XYZ
    dof rx rz
    limits (-45.0 45.0)
           (-45.0 45.0)
  end
  begin
     id 24 
     name rclavicle
     direction -0.967632 0.241887 0.0719654   
     length 3.53012  
     axis 0 0 0   XYZ 
    dof ry rz
    limits (-10.0 20.0)
           (-20.0 0.0)
  end
  begin
     id 25 
     name rhumerus
     direction -1 -4.4897e-011 6.87619e-028  
     length 5.45859   
     axis -180 30 90   XYZ
    dof rx ry rz
    limits (-90.0 60.0)
           (-90.0 90.0)
           (-90.0 90.0)
  end
  begin
     id 26 
     name rradius
     direction -1 -4.48967e-011 1.68055e-026   
     length 3.58491   
     axis -180 30 90   XYZ
    dof rx
    limits (-10.0 170.0)
  end
  begin
     id 27 
     name rwrist
     direction -1 -4.48976e-011 2.98015e-026   
     length 1.79245   
     axis -1.7599e-014 -90 -90   XYZ
    dof ry
    limits (-180.0 0.0)
  end
  begin
     id 28
     name rhand
     direction -1 -4.48996e-011 5.9603e-026   
     length 0.683735   
     axis -3.80318e-014 -90 -90   XYZ
    dof rx rz
    limits (-90.0 90.0)
           (-45.0 45.0)
  end
  begin
     id 29
     name rfingers
     direction -1 -4.48924e-011 1.19206e-025   
     length 0.551245   
     axis -7.60636e-014 -90 -90   XYZ
    dof rx
    limits (0.0 90.0)
  end
  begin
     id 30
     name rthumb
     direction -0.707107 -6.3492e-011 0.707107   
     length 0.791481   
     axis -90 -45 -2.85299e-015   XYZ
    dof rx rz
    limits (-45.0 45.0)
           (-45.0 45.0)
  end
:hierarchy
  begin
    root lhipjoint rhipjoint lowerback
    lhipjoint lfemur
    lfemur ltibia
    ltibia lfoot
    lfoot ltoes
    rhipjoint rfemur
    rfemur rtibia
    rtibia rfoot
    rfoot rtoes
    lowerback upperback
    upperback thorax
    thorax lowerneck lclavicle rclavicle
    lowerneck upperneck
    upperneck head
    lclavicle lhumerus
    lhumerus lradius
    lradius lwrist
    lwrist lhand lthumb
    lhand lfingers
    rclavicle rhumerus
    rhumerus rradius
    rradius rwrist
    rwrist rhand rthumb
    rhand rfingers
  end

#!OML:ASF F:\VICON\USERDATA\INSTALL\rory3\rory3.ASF
:FULLY-SPECIFIED
:DEGREES
2113
root -2.74916 18.285 -31.712 -177.646 -169.736 182.299
lowerback -3.48564 2.87163 0.859187
upperback -6.38333 3.85116 0.983109
thorax -4.6564 1.90269 0.512194
lowerneck -4.55571 2.07353 3.28312
upperneck 4.09991 2.96002 -7.76965
head 2.31242 1.32412 -3.01796
rclavicle -1.43125e-014 9.54166e-015
rhumerus 24.9021 -3.9897 -73.9133
rradius 97.0101
rwrist -5.81017
rhand -27.448 52.8579
rfingers 7.12502
rthumb -0.852792 -337.12
lclavicle -1.43125e-014 9.54166e-015
lhumerus -12.8522 -18.2908 66.4031
lradius 87.0055
lwrist 63.6847
lhand -25.7813 79.5426
lfingers 7.12502
lthumb -179.243 -289.521
rfemur -13.9016 4.50659 26.1601
rtibia 40.4881
rfoot -38.0097 -13.5281
rtoes 11.0461
lfemur -10.9053 1.09952 -12.1389
ltibia 31.8227
lfoot -0.719565 10.3225
ltoes -23.0788
2114
root -2.77077 18.2828 -31.7114 -177.479 -171.69 181.982
lowerback -3.77726 2.96438 1.36411
upperback -5.20812 3.93841 0.551053
thorax -3.19635 1.92921 -0.156694
lowerneck -9.40296 1.77557 3.00869
upperneck 5.60003 2.61527 -7.86045
head 3.34796 1.00485 -2.73382
rclavicle -3.8763e-014 -1.51076e-014
rhumerus 29.6721 -6.39773 -75.23
rradius 97.5953
rwrist -5.06551
rhand -27.2247 52.6695
rfingers 7.12502
rthumb -0.637084 -337.309
lclavicle -3.8763e-014 -1.51076e-014
lhumerus -10.0045 -17.757 65.4162
lradius 88.1916
lwrist 64.1119
lhand -26.1165 72.6102
lfingers 7.12502
lthumb -179.567 -282.589
rfemur -13.7626 3.78466 26.668
rtibia 40.1729
rfoot -38.8066 -13.5758
rtoes 12.8279
lfemur -11.7618 0.746398 -11.7975
ltibia 32.1586
lfoot -0.397691 9.79898
ltoes -24.6911
2115
root -2.78945 18.2783 -31.7089 -177.386 -173.387 181.669
lowerback -3.68199 2.88908 1.56594
upperback -5.35078 3.84031 0.486645
thorax -3.38212 1.87049 -0.345601
lowerneck -8.72475 1.47853 2.84654
upperneck 5.11291 2.2176 -7.81484
head 3.39234 0.84547 -3.0103
rclavicle 6.54002e-014 1.98785e-014
rhumerus 31.7322 -7.16309 -76.1267
rradius 98.4479
rwrist -3.98947
rhand -27.6296 52.5963
rfingers 7.12502
rthumb -1.02817 -337.381
lclavicle 6.54002e-014 1.98785e-014
lhumerus -10.5058 -17.4769 65.5022
lradius 89.4154
lwrist 64.3304
lhand -25.6077 68.1708
lfingers 7.12502
lthumb -179.075 -278.149
rfemur -13.6511 3.04468 27.1462
rtibia 39.9337
rfoot -39.3287 -14.1259
rtoes 13.7849
lfemur -12.4097 0.322786 -11.451
ltibia 32.3584
lfoot -0.71239 9.50979
ltoes -22.6243
2116
root -2.80883 18.2706 -31.6999 -177.343 -174.818 181.578
lowerback -3.7781 2.80824 1.55586
upperback -5.42919 3.73013 0.357718
thorax -3.40358 1.81345 -0.470604
lowerneck -7.92269 1.28926 2.74296
upperneck 4.78901 1.96672 -7.88233
head 3.10924 0.738076 -3.01747
rclavicle -3.47873e-015 -1.98785e-015
rhumerus 33.0428 -7.59665 -76.6543
rradius 99.6256
rwrist -2.69462
rhand -27.9663 52.4718
rfingers 7.12502
rthumb -1.35334 -337.504
lclavicle -3.47873e-015 -1.98785e-015
lhumerus -11.127 -17.1205 65.3667
lradius 90.3721
lwrist 64.3095
lhand -24.9134 66.3611
lfingers 7.12502
lthumb -178.405 -276.335
rfemur -13.5444 2.60391 27.3702
rtibia 39.763
rfoot -39.9407 -14.144
rtoes 14.9676
lfemur -12.8723 -0.0489819 -11.3825
ltibia 32.4492
lfoot -0.98827 9.35795
ltoes -21.8234
2117
root -2.82766 18.2634 -31.6911 -177.381 -176.025 181.718
lowerback -3.86368 2.75416 1.2138
upperback -5.44793 3.66094 0.283038
thorax -3.39204 1.79072 -0.354374
lowerneck -7.24288 1.17883 2.60152
upperneck 4.54984 1.83355 -8.04039
head 2.89022 0.681939 -3.044
rclavicle -3.21037e-014 1.98785e-015
rhumerus 33.8718 -7.85819 -76.4438
rradius 100.942
rwrist -1.62678
rhand -28.2197 52.3895
rfingers 7.12502
rthumb -1.59813 -337.584
lclavicle -3.21037e-014 1.98785e-015
lhumerus -11.7893 -16.5389 65.3675
lradius 91.055
lwrist 64.3257
lhand -23.9779 65.4957
lfingers 7.12502
lthumb -177.501 -275.461
rfemur -13.4268 2.0669 27.3389
rtibia 39.6981
rfoot -40.609 -13.8534
rtoes 14.7029
lfemur -13.143 -0.401911 -11.5668
ltibia 32.424
lfoot -1.08465 9.22889
ltoes -22.1668
2118
root -2.8406 18.2579 -31.6877 -177.401 -177.028 181.628
lowerback -3.79875 2.73442 1.21091
upperback -5.47596 3.63626 0.22675
thorax -3.45446 1.77733 -0.415108
lowerneck -6.87963 1.09594 2.56943
upperneck 4.54874 1.74272 -8.27197
head 2.81988 0.636409 -3.12047
rclavicle -4.59193e-014 -1.19271e-014
rhumerus 34.5376 -8.1069 -76.0693
rradius 102.372
rwrist -0.947137
rhand -28.2621 52.0256
rfingers 7.12502
rthumb -1.63909 -337.948
lclavicle -4.59193e-014 -1.19271e-014
lhumerus -12.4003 -15.9292 65.1719
lradius 91.4962
lwrist 64.2646
lhand -24.1573 65.2158
lfingers 7.12502
lthumb -177.675 -275.183
rfemur -13.4126 1.48409 27.5441
rtibia 39.7181
rfoot -40.835 -14.5531
rtoes 12.636
lfemur -13.2823 -0.811907 -11.4866
ltibia 32.3085
lfoot -1.31655 9.17857
ltoes -21.0803
2119
root -2.849 18.2431 -31.6868 -177.497 -177.83 181.72
lowerback -3.6945 2.7741 1.04901
upperback -5.3668 3.68944 0.0806115
thorax -3.39843 1.808 -0.47676
lowerneck -7.01232 1.03286 2.646
upperneck 4.6876 1.66917 -8.4136
head 2.89224 0.591524 -3.19145
rclavicle 3.93594e-014 -1.59028e-015
rhumerus 35.2453 -8.44055 -75.6165
rradius 103.717
rwrist -0.733171
rhand -28.193 51.6421
rfingers 7.12502
rthumb -1.5723 -338.332
lclavicle 3.93594e-014 -1.59028e-015
lhumerus -12.7405 -15.5042 64.8706
lradius 91.5412
lwrist 64
lhand -24.8134 65.5399
lfingers 7.12502
lthumb -178.308 -275.513
rfemur -13.364 1.01466 27.5395
rtibia 39.7848
rfoot -41.1003 -14.9941
rtoes 12.1457
lfemur -13.2282 -1.13635 -11.6218
ltibia 32.1726
lfoot -1.71252 9.08696
ltoes -19.2677
2120
root -2.85825 18.2355 -31.6868 -177.685 -178.473 181.86
lowerback -3.62649 2.84596 0.808617
upperback -5.17674 3.78506 -0.0604781
thorax -3.24274 1.86337 -0.484601
lowerneck -6.9815 1.02144 2.74341
upperneck 4.62517 1.64494 -8.47499
head 2.86667 0.581476 -3.23141
rclavicle -5.42185e-014 -2.38542e-015
rhumerus 35.7379 -8.66577 -75.1396
rradius 105.088
rwrist -0.816199
rhand -28.2232 51.3637
rfingers 7.12502
rthumb -1.60148 -338.61
lclavicle -5.42185e-014 -2.38542e-015
lhumerus -12.9586 -15.2676 64.5702
lradius 91.2914
lwrist 63.8441
lhand -25.7429 65.8187
lfingers 7.12502
lthumb -179.206 -275.797
rfemur -13.2481 0.685305 27.474
rtibia 39.9307
rfoot -41.2805 -15.5462
rtoes 10.9232
lfemur -13.0632 -1.5485 -11.7946
ltibia 31.9784
lfoot -1.93236 9.0606
ltoes -18.5098
2121
root -2.86392 18.2321 -31.6837 -177.796 -178.855 181.766
lowerback -3.66874 3.01808 0.884019
upperback -5.09085 4.01024 -0.177392
thorax -3.11354 1.97238 -0.638331
lowerneck -6.70358 0.970409 2.94759
upperneck 4.67174 1.56713 -8.54731
head 2.82968 0.549892 -3.29805
rclavicle -1.90833e-014 1.15295e-014
rhumerus 35.776 -8.94865 -74.5367
rradius 106.58
rwrist -1.17217
rhand -28.0562 50.9056
rfingers 7.12502
rthumb -1.44015 -339.069
lclavicle -1.90833e-014 1.15295e-014
lhumerus -13.222 -15.0378 64.13
lradius 90.9294
lwrist 63.7288
lhand -25.8507 66.3575
lfingers 7.12502
lthumb -179.31 -276.336
rfemur -13.2408 0.486359 27.6222
rtibia 40.1567
rfoot -41.3418 -16.2402
rtoes 9.28846
lfemur -12.9056 -1.83132 -11.6856
ltibia 31.7012
lfoot -2.15316 9.11546
ltoes -17.653
